<svg id="kamiledemir" version="1.1" xmlns="http://www.w3.org/2000/svg" xmlns:xlink="http://www.w3.org/1999/xlink" x="0px" y="0px" viewBox="0 0 390.8 44.89" style="enable-background:new 0 0 390.8 44.89;" xml:space="preserve">
<path class="st0" d="M12.7,5.24c2.93,0,4.95,1.37,6.07,4.11l4.97,12.55c0.19,0.15,0.5,0.23,0.93,0.23c0.27,0,0.48-0.09,0.64-0.26
c0.15-0.17,0.23-0.38,0.23-0.61c0-0.39-0.21-1.1-0.64-2.14L20.33,7.55c-0.19-0.5-0.29-0.89-0.29-1.16v-0.4
c0-0.31,0.06-0.51,0.17-0.61c0.12-0.1,0.31-0.14,0.58-0.14H37.1c1.5,0,2.25,0.64,2.25,1.91c0,0.42-0.22,1.01-0.66,1.76
c-0.44,0.75-1.65,2.46-3.61,5.12l-6.65,9.08c3.16,0.15,5.59,1.06,7.29,2.72c1.7,1.66,2.54,3.93,2.54,6.82v4.51
c0,1.23,0.17,2.14,0.52,2.72c0.35,0.58,1.08,1.18,2.2,1.79c0.27,0.16,0.43,0.28,0.49,0.38c0.06,0.1,0.09,0.22,0.09,0.38v0.69
c0,0.39-0.23,0.58-0.69,0.58H23.4c-0.69,0-1.19-0.15-1.47-0.46c-0.29-0.31-0.43-0.83-0.43-1.56V24.61c0-0.42-0.1-0.77-0.29-1.04
c-0.19-0.27-0.46-0.4-0.81-0.4c-0.5,0-0.87,0.15-1.1,0.46v18.04c0,0.73-0.14,1.25-0.43,1.56c-0.29,0.31-0.78,0.46-1.47,0.46H5.7
c-0.69,0-1.19-0.15-1.47-0.46C3.94,42.92,3.8,42.4,3.8,41.67V11.83c0-0.96-0.08-1.67-0.23-2.11C3.41,9.28,3.14,8.88,2.76,8.51
C2.37,8.14,1.71,7.65,0.79,7.03C0.6,6.92,0.5,6.75,0.5,6.51V5.82c0-0.38,0.23-0.58,0.69-0.58H12.7z"/>
<path class="st0" d="M67.29,44.39c-3.89,0-6.67-1.6-8.33-4.8c-0.89,1.66-1.98,2.87-3.27,3.64c-1.29,0.77-2.88,1.16-4.77,1.16
c-2.66,0-4.8-0.66-6.42-1.97c-1.62-1.31-2.43-3.04-2.43-5.2c0-1.89,0.66-3.38,1.99-4.48s3.38-1.84,6.16-2.23
c7.09-0.93,10.64-3.6,10.64-8.04c0-1.77-0.62-3.31-1.85-4.6c-1.23-1.29-2.7-1.94-4.39-1.94c-0.81,0-1.21,0.27-1.21,0.81
c0,0.19,0.06,0.39,0.17,0.58c1.62,0,2.95,0.48,3.99,1.45c1.04,0.96,1.56,2.2,1.56,3.7c0,1.77-0.74,3.24-2.23,4.39
c-1.48,1.16-3.38,1.73-5.7,1.73c-2.35,0-4.22-0.59-5.61-1.76c-1.39-1.18-2.08-2.73-2.08-4.66c0-2.58,1.25-4.65,3.76-6.22
c2.51-1.56,5.82-2.34,9.95-2.34c4.93,0,8.68,1.2,11.25,3.59c2.56,2.39,3.85,5.9,3.85,10.52v7.23c0,0.66,0.06,1.1,0.17,1.33
c0.12,0.23,0.31,0.35,0.58,0.35c0.35,0,0.6-0.15,0.75-0.46c0.15-0.31,0.29-0.91,0.4-1.79c0.08-0.65,0.15-1.05,0.23-1.19
c0.08-0.13,0.23-0.2,0.46-0.2h0.98c0.23,0,0.39,0.14,0.49,0.4c0.1,0.27,0.15,0.71,0.15,1.33c0,3.08-0.8,5.46-2.4,7.14
C72.54,43.55,70.26,44.39,67.29,44.39z M57.98,31.9c-0.23-0.31-0.54-0.46-0.93-0.46c-0.66,0-0.98,0.39-0.98,1.16v3.7
c0,0.77,0.33,1.16,0.98,1.16c0.38,0,0.69-0.15,0.93-0.46V31.9z"/>
<path class="st0" d="M85.1,14.32c1.89,0,3.4,0.34,4.54,1.01c1.14,0.67,1.92,1.73,2.34,3.15c0.89-1.54,2.07-2.74,3.56-3.58
c1.48-0.85,3.13-1.27,4.94-1.27c1.77,0,3.3,0.4,4.57,1.19c1.27,0.79,2.22,1.94,2.83,3.44c0.81-1.46,1.96-2.6,3.44-3.41
c1.48-0.81,3.15-1.21,5-1.21c2.7,0,4.75,0.81,6.16,2.43c1.41,1.62,2.11,3.99,2.11,7.11v18.68c0,0.66-0.14,1.13-0.43,1.42
s-0.8,0.43-1.53,0.43h-9.83c-0.73,0-1.24-0.14-1.53-0.43s-0.43-0.76-0.43-1.42V21.95c0-0.42-0.1-0.77-0.29-1.04
c-0.19-0.27-0.46-0.4-0.81-0.4c-0.46,0-0.79,0.15-0.98,0.46v20.87c0,0.66-0.14,1.13-0.43,1.42s-0.8,0.43-1.53,0.43h-9.83
c-0.73,0-1.24-0.14-1.53-0.43s-0.43-0.76-0.43-1.42V21.95c0-0.42-0.1-0.77-0.29-1.04c-0.19-0.27-0.46-0.4-0.81-0.4
c-0.46,0-0.79,0.15-0.98,0.46v20.87c0,0.66-0.14,1.13-0.43,1.42c-0.29,0.29-0.8,0.43-1.53,0.43h-9.83c-0.73,0-1.24-0.14-1.53-0.43
c-0.29-0.29-0.43-0.76-0.43-1.42V21.43c0-1.35-0.19-2.38-0.58-3.09c-0.39-0.71-1.1-1.38-2.14-2c-0.27-0.15-0.43-0.28-0.49-0.38
c-0.06-0.1-0.09-0.22-0.09-0.38V14.9c0-0.38,0.23-0.58,0.69-0.58H85.1z"/>
<path class="st0" d="M141.77,14.32c0.73,0,1.24,0.14,1.53,0.43s0.43,0.76,0.43,1.42v18.79c0,0.66,0.06,1.1,0.17,1.33
c0.12,0.23,0.31,0.35,0.58,0.35c0.35,0,0.59-0.13,0.72-0.4c0.13-0.27,0.28-0.89,0.43-1.85c0.08-0.65,0.15-1.05,0.23-1.19
c0.08-0.13,0.23-0.2,0.46-0.2h0.98c0.23,0,0.39,0.14,0.49,0.4c0.1,0.27,0.15,0.73,0.15,1.39c0,3.08-0.83,5.46-2.49,7.11
c-1.66,1.66-4.03,2.49-7.11,2.49c-2.97,0-5.25-0.84-6.85-2.52c-1.6-1.68-2.4-4.08-2.4-7.2V21.43c0-1.35-0.19-2.38-0.58-3.09
c-0.39-0.71-1.1-1.38-2.14-2c-0.27-0.15-0.43-0.28-0.49-0.38c-0.06-0.1-0.09-0.22-0.09-0.38V14.9c0-0.38,0.23-0.58,0.69-0.58H141.77
z M128.47,6.22c0-1.73,0.67-3.12,2.02-4.16c1.35-1.04,3.16-1.56,5.44-1.56c2.27,0,4.1,0.52,5.46,1.56c1.37,1.04,2.05,2.43,2.05,4.16
c0,1.7-0.68,3.06-2.05,4.11c-1.37,1.04-3.19,1.56-5.46,1.56c-2.27,0-4.09-0.51-5.44-1.53C129.14,9.34,128.47,7.96,128.47,6.22z"/>
<path class="st0" d="M150.32,9.23c0-1.35-0.19-2.38-0.58-3.09c-0.39-0.71-1.1-1.38-2.14-1.99c-0.27-0.15-0.43-0.28-0.49-0.38
c-0.06-0.1-0.09-0.22-0.09-0.38V2.7c0-0.38,0.23-0.58,0.69-0.58h15.27c0.73,0,1.24,0.14,1.53,0.43s0.43,0.76,0.43,1.42v30.99
c0,0.66,0.06,1.1,0.17,1.33c0.12,0.23,0.31,0.35,0.58,0.35c0.35,0,0.59-0.13,0.72-0.4c0.13-0.27,0.28-0.89,0.43-1.85
c0.08-0.65,0.15-1.05,0.23-1.19c0.08-0.13,0.23-0.2,0.46-0.2h0.98c0.23,0,0.39,0.14,0.49,0.4c0.1,0.27,0.15,0.73,0.15,1.39
c0,3.08-0.83,5.46-2.49,7.11c-1.66,1.66-4.03,2.49-7.11,2.49c-2.97,0-5.25-0.84-6.85-2.52c-1.6-1.68-2.4-4.08-2.4-7.2V9.23z"/>
<path class="st0" d="M183.8,30.34c0,0.89,0.75,1.71,2.26,2.46c1.5,0.75,3.18,1.13,5.03,1.13c3.66,0,6.67-1.23,9.02-3.7
c0.23-0.23,0.39-0.38,0.49-0.43c0.1-0.06,0.24-0.09,0.43-0.09h0.69c0.27,0,0.45,0.1,0.55,0.29c0.1,0.19,0.14,0.54,0.14,1.04
c0,2.39-0.65,4.6-1.94,6.62c-1.29,2.02-3.12,3.65-5.49,4.89c-2.37,1.23-5.02,1.85-7.95,1.85c-3.12,0-5.94-0.64-8.44-1.91
c-2.51-1.27-4.5-3.08-5.98-5.44c-1.48-2.35-2.23-5.03-2.23-8.04c0-2.97,0.69-5.61,2.08-7.92c1.39-2.31,3.36-4.13,5.93-5.46
c2.56-1.33,5.56-2,8.99-2c2.58,0,4.91,0.4,6.97,1.21c2.06,0.81,3.69,1.97,4.89,3.47s1.79,3.24,1.79,5.2c0,2.51-0.91,4.58-2.72,6.22
c-1.81,1.64-4.11,2.46-6.88,2.46c-2.78,0-5.03-0.93-6.77-2.78c-0.23,0-0.43,0.09-0.61,0.26C183.89,29.85,183.8,30.07,183.8,30.34z
M185.54,26.35c0.23,0.31,0.54,0.46,0.93,0.46c0.69,0,1.04-0.39,1.04-1.16v-8.21c0-0.77-0.35-1.16-1.04-1.16
c-0.39,0-0.69,0.15-0.93,0.46V26.35z"/>
<path class="st0" d="M237,5.24c5.71,0,10.15,1.69,13.33,5.06c3.18,3.37,4.77,8.07,4.77,14.08c0,3.78-0.73,7.12-2.2,10.03
c-1.46,2.91-3.58,5.19-6.33,6.82c-2.76,1.64-5.97,2.46-9.63,2.46H221.1c-0.69,0-1.19-0.15-1.47-0.46c-0.29-0.31-0.43-0.83-0.43-1.56
v-29.9c0-1.23-0.15-2.11-0.46-2.63c-0.31-0.52-1.16-1.22-2.54-2.11c-0.19-0.12-0.29-0.29-0.29-0.52V5.82c0-0.38,0.23-0.58,0.69-0.58
H237z M234.69,40.46c0.23,0.31,0.6,0.46,1.1,0.46c0.35,0,0.62-0.13,0.81-0.4c0.19-0.27,0.29-0.62,0.29-1.04V9.46
c0-0.42-0.1-0.77-0.29-1.04c-0.19-0.27-0.46-0.4-0.81-0.4c-0.5,0-0.87,0.15-1.1,0.46V40.46z"/>
<path class="st0" d="M270.83,30.34c0,0.89,0.75,1.71,2.26,2.46c1.5,0.75,3.18,1.13,5.03,1.13c3.66,0,6.67-1.23,9.02-3.7
c0.23-0.23,0.39-0.38,0.49-0.43c0.1-0.06,0.24-0.09,0.43-0.09h0.69c0.27,0,0.45,0.1,0.55,0.29c0.1,0.19,0.14,0.54,0.14,1.04
c0,2.39-0.65,4.6-1.94,6.62c-1.29,2.02-3.12,3.65-5.49,4.89s-5.02,1.85-7.95,1.85c-3.12,0-5.94-0.64-8.44-1.91
c-2.51-1.27-4.5-3.08-5.98-5.44c-1.48-2.35-2.23-5.03-2.23-8.04c0-2.97,0.69-5.61,2.08-7.92s3.36-4.13,5.93-5.46
c2.56-1.33,5.56-2,8.99-2c2.58,0,4.91,0.4,6.97,1.21c2.06,0.81,3.69,1.97,4.89,3.47c1.19,1.5,1.79,3.24,1.79,5.2
c0,2.51-0.91,4.58-2.72,6.22c-1.81,1.64-4.11,2.46-6.88,2.46c-2.78,0-5.03-0.93-6.77-2.78c-0.23,0-0.43,0.09-0.61,0.26
C270.92,29.85,270.83,30.07,270.83,30.34z M272.56,26.35c0.23,0.31,0.54,0.46,0.92,0.46c0.69,0,1.04-0.39,1.04-1.16v-8.21
c0-0.77-0.35-1.16-1.04-1.16c-0.39,0-0.69,0.15-0.92,0.46V26.35z"/>
<path class="st0" d="M298.35,14.32c1.89,0,3.4,0.34,4.54,1.01c1.14,0.67,1.92,1.73,2.34,3.15c0.89-1.54,2.07-2.74,3.56-3.58
c1.48-0.85,3.13-1.27,4.94-1.27c1.77,0,3.3,0.4,4.57,1.19c1.27,0.79,2.22,1.94,2.83,3.44c0.81-1.46,1.96-2.6,3.44-3.41
c1.48-0.81,3.15-1.21,5-1.21c2.7,0,4.75,0.81,6.16,2.43s2.11,3.99,2.11,7.11v18.68c0,0.66-0.14,1.13-0.43,1.42
c-0.29,0.29-0.8,0.43-1.53,0.43h-9.83c-0.73,0-1.24-0.14-1.53-0.43s-0.43-0.76-0.43-1.42V21.95c0-0.42-0.1-0.77-0.29-1.04
c-0.19-0.27-0.46-0.4-0.81-0.4c-0.46,0-0.79,0.15-0.98,0.46v20.87c0,0.66-0.14,1.13-0.43,1.42s-0.8,0.43-1.53,0.43h-9.83
c-0.73,0-1.24-0.14-1.53-0.43s-0.43-0.76-0.43-1.42V21.95c0-0.42-0.1-0.77-0.29-1.04c-0.19-0.27-0.46-0.4-0.81-0.4
c-0.46,0-0.79,0.15-0.98,0.46v20.87c0,0.66-0.14,1.13-0.43,1.42s-0.8,0.43-1.53,0.43h-9.83c-0.73,0-1.24-0.14-1.53-0.43
s-0.43-0.76-0.43-1.42V21.43c0-1.35-0.19-2.38-0.58-3.09c-0.39-0.71-1.1-1.38-2.14-2c-0.27-0.15-0.43-0.28-0.49-0.38
c-0.06-0.1-0.09-0.22-0.09-0.38V14.9c0-0.38,0.23-0.58,0.69-0.58H298.35z"/>
<path class="st0" d="M355.02,14.32c0.73,0,1.24,0.14,1.53,0.43s0.43,0.76,0.43,1.42v18.79c0,0.66,0.06,1.1,0.17,1.33
c0.12,0.23,0.31,0.35,0.58,0.35c0.35,0,0.59-0.13,0.72-0.4c0.13-0.27,0.28-0.89,0.43-1.85c0.08-0.65,0.15-1.05,0.23-1.19
c0.08-0.13,0.23-0.2,0.46-0.2h0.98c0.23,0,0.4,0.14,0.49,0.4c0.1,0.27,0.14,0.73,0.14,1.39c0,3.08-0.83,5.46-2.49,7.11
c-1.66,1.66-4.03,2.49-7.11,2.49c-2.97,0-5.25-0.84-6.85-2.52c-1.6-1.68-2.4-4.08-2.4-7.2V21.43c0-1.35-0.19-2.38-0.58-3.09
c-0.39-0.71-1.1-1.38-2.14-2c-0.27-0.15-0.43-0.28-0.49-0.38c-0.06-0.1-0.09-0.22-0.09-0.38V14.9c0-0.38,0.23-0.58,0.69-0.58H355.02
z M341.72,6.22c0-1.73,0.67-3.12,2.02-4.16c1.35-1.04,3.16-1.56,5.44-1.56s4.1,0.52,5.46,1.56c1.37,1.04,2.05,2.43,2.05,4.16
c0,1.7-0.68,3.06-2.05,4.11c-1.37,1.04-3.19,1.56-5.46,1.56s-4.09-0.51-5.44-1.53C342.4,9.34,341.72,7.96,341.72,6.22z"/>
<path class="st0" d="M365.32,14.32c3.31,0,5.57,0.98,6.77,2.95c1.12-1.23,2.37-2.15,3.76-2.75c1.39-0.6,2.99-0.9,4.8-0.9
c2.81,0,5.13,0.77,6.94,2.31c1.81,1.54,2.72,3.51,2.72,5.9c0,2-0.73,3.63-2.2,4.89c-1.47,1.25-3.35,1.88-5.67,1.88
c-2.28,0-4.13-0.58-5.58-1.73c-1.45-1.16-2.17-2.62-2.17-4.39c0-1.5,0.52-2.74,1.56-3.7c1.04-0.96,2.37-1.45,3.99-1.45
c0.12-0.19,0.17-0.39,0.17-0.58c0-0.54-0.4-0.81-1.21-0.81c-1.7,0-3.16,0.65-4.39,1.94c-1.23,1.29-1.85,2.84-1.85,4.65
c0,1.54,0.43,2.9,1.3,4.08c0.87,1.18,2.11,2.11,3.73,2.8c0.54,0.23,0.9,0.49,1.07,0.78c0.17,0.29,0.26,0.78,0.26,1.47v10.18
c0,1.23-0.66,1.85-1.97,1.85H365.6c-1.2,0-1.79-0.62-1.79-1.85V21.43c0-1.35-0.19-2.38-0.58-3.09c-0.39-0.71-1.1-1.38-2.14-2
c-0.27-0.15-0.43-0.28-0.49-0.38c-0.06-0.1-0.09-0.22-0.09-0.38V14.9c0-0.38,0.23-0.58,0.69-0.58H365.32z"/>
</svg>
